<svg xmlns="http://www.w3.org/2000/svg" width="394.95349mm" height="81.923767mm" viewBox="0 0 394.95349 81.923767"><path d="M0 0h-2.616c-.956 2.037-2.783 4.088-6.105 5.689l-.003-.009-.255.141-7.112-13.458 2.129.004 5.816 11.036C-6.122 2.144-2.073-1.25-4.06-7.408l1.668-.957s1.313 3.107.386 6.674H0v-13.693h1.89V5.655H0Z" style="fill:#64696e;fill-opacity:1;fill-rule:nonzero;stroke:none" transform="matrix(2.3622 0 0 -2.3622 204.48 31.438)"/><path d="M195.62 704.266h1.871v21.039h-1.871z" style="fill:#64696e;fill-opacity:1;fill-rule:nonzero;stroke:none" transform="matrix(2.3622 0 0 -2.3622 -248.576 1731.4)"/><path d="m0 0 1.727-.808s3.569 8.307-5.228 13.35l-.038.022c-.404.231-.833.454-1.292.669l-.34.177-7.115-13.457h2.217l5.77 11.059C-2.458 9.95 2.081 6.577 0 0" style="fill:#64696e;fill-opacity:1;fill-rule:nonzero;stroke:none" transform="matrix(2.3622 0 0 -2.3622 136.764 49.424)"/><path d="M0 0h-11.811v6.085h-2.049v-7.776H2.029v21.043H0Z" style="fill:#64696e;fill-opacity:1;fill-rule:nonzero;stroke:none" transform="matrix(2.3622 0 0 -2.3622 153.282 63.782)"/><path d="M247.488 704.266h2.047v21.037h-2.047z" style="fill:#64696e;fill-opacity:1;fill-rule:nonzero;stroke:none" transform="matrix(2.3622 0 0 -2.3622 -248.576 1731.4)"/><path d="M248.895 721.204h-5.866v-1.693h5.866zM249.536 705.958h-14.214v-1.691h14.214z" style="fill:#64696e;fill-opacity:1;fill-rule:nonzero;stroke:none" transform="matrix(2.3622 0 0 -2.3622 -248.576 1731.4)"/><path d="M237.129 704.266h-2.051v7.764h2.051zM271.39 721.408h-5.869v-1.693h5.869zM272.427 713.688h-14.454v-1.691h14.454zM272.427 705.968h-13.553v-1.691h13.553zM272.427 709.882h-14.454v-1.702h14.454z" style="fill:#64696e;fill-opacity:1;fill-rule:nonzero;stroke:none" transform="matrix(2.3622 0 0 -2.3622 -248.576 1731.4)"/><path d="M260.024 704.276h-2.051v5.543h2.051zM272.427 725.313h-2.047v-10.159h2.047zM272.427 712.495h-2.047v-3.001h2.047z" style="fill:#64696e;fill-opacity:1;fill-rule:nonzero;stroke:none" transform="matrix(2.3622 0 0 -2.3622 -248.576 1731.4)"/><path d="M0 0v1.693h11.39s.219-.881.219-1.958c0-1.074.03-4.601-3.133-7.369C4.99-10.683-.93-10.291-.93-10.291l-.463 1.778c1.124 0 5.824-.065 8.586 2.197C10.001-4.01 9.749-.221 9.749-.221L9.732 0H0" style="fill:#64696e;fill-opacity:1;fill-rule:nonzero;stroke:none" transform="matrix(2.3622 0 0 -2.3622 299.953 22.084)"/><path d="M0 0v-.002l-5.434-10.275h2.124l4.367 8.291c3.43-.721 5.799-3.773 5.607-7.361a5.28 5.28 0 0 0-.141-.93l1.752-.732c.097.542.213 1.095.233 1.662C8.708-4.183 4.772-.194 0 0" style="fill:#64696e;fill-opacity:1;fill-rule:nonzero;stroke:none" transform="matrix(2.3622 0 0 -2.3622 362.523 16.942)"/><path d="M219.846 704.266h1.873v21.04h-1.873z" style="fill:#64696e;fill-opacity:1;fill-rule:nonzero;stroke:none" transform="matrix(2.3622 0 0 -2.3622 -248.576 1731.4)"/><path d="M0 0c6.756.432 9.546 5.397 9.546 5.397h4.295V-6.75h1.89v21.041h-1.89v-3.806h-2.674c.076 1.22-.102 2.832-.437 3.789H.938v-1.723l8.289-.002c.118-.684.103-1.289.103-1.289C9.219 6.022 5.476 2.161-.685 1.708Zm13.841 7.099h-3.463c.197.542.416 1.103.524 1.687h2.939z" style="fill:#64696e;fill-opacity:1;fill-rule:nonzero;stroke:none" transform="matrix(2.3622 0 0 -2.3622 229.009 51.834)"/><path d="M0 0c.436-.586 1.343-1.799 1.368-1.818.068-.115.131-.231.22-.331.527-1.082 1.34-2.052 1.694-3.258l.218-.684s.054-.232.088-.495c.197-.77.008-1.527-.068-2.282-.254-1.345-1.035-2.59-1.736-3.757-.649-.882-2.076-2.586-2.076-2.586-.841 1.005-1.746 1.975-2.622 2.941-.492.905-.997 1.804-1.438 2.75-.321 1.08-.599 2.147-.563 3.216-.012.014.037.459.056.647.104.377.175.795.377 1.119.059.171.284.539.418.696 0 0 .409.581.525.721.986 1.235 2.285 2.109 3.421 3.186C-.06.11-.033.024 0 0" style="fill:#db1f26;fill-opacity:1;fill-rule:nonzero;stroke:none" transform="matrix(2.3622 0 0 -2.3622 45.215 .184)"/><path d="M0 0c.306-.13.634-.176.942-.289.861-.086 1.696-.319 2.519-.551.513-.171 1.521-.69 1.521-.69 1.312-.718 2.201-1.827 3.123-2.865.783-1.107 1.432-2.317 1.729-3.749.074-.425.211-.878.245-1.305a17.35 17.35 0 0 0-4.281-.688c-1.132.176-2.209.592-3.265 1.143C1.496-8.267.705-7.39.01-6.426c-.927 1.445-1.399 3.28-1.608 5.033-.03.243-.05.462-.05.462s-.08.727-.125 1.092c.001.185.016.289.016.289s.284-.064.497-.096C-.937.251-.152.024 0 0" style="fill:#db1f26;fill-opacity:1;fill-rule:nonzero;stroke:none" transform="matrix(2.3622 0 0 -2.3622 14.26 14.982)"/><path d="M0 0c.045-.008 1.46-.23 2.276-.468.143-.026.22-.067.348-.092a84.875 84.875 0 0 0 2.16-.75c-.114-.979-.288-1.942-.887-2.794-.018-.031-.043-.065-.077-.113-.498-.811-1.273-1.528-2.056-2.061-.747-.486-1.48-1.003-2.321-1.345-1.717-.825-3.76-1.441-5.698-1.129-.728.127-1.494.152-2.22.312 0 0 .329 1.296.474 1.945.093.413.436 1.19.436 1.19.551.864.726 1.827 1.454 2.636.98 1.008 1.984 1.98 3.294 2.486C-1.902.132-.9.164 0 0" style="fill:#db1f26;fill-opacity:1;fill-rule:nonzero;stroke:none" transform="matrix(2.3622 0 0 -2.3622 69.961 17.805)"/><path d="M0 0c.894.329 1.52 1.065 2.174 1.72.651.679 1.222 1.432 1.768 2.217.015.024.512.792.744 1.092.017.029.039.043.055.074-1.23.501-2.425 1.029-3.67 1.349-1.05.263-2.081.612-3.162.633-.917.027-1.811.206-2.766-.052-2.123-.521-3.812-1.666-5.404-2.888l.016-.061c.588-.879 1.191-1.754 1.881-2.548.001-.007.267-.344.427-.474l.776-.778c.308-.16.968-.449.968-.449.784-.452 1.652-.573 2.502-.651C-2.71-.736-1.032-.522 0 0" style="fill:#db1f26;fill-opacity:1;fill-rule:nonzero;stroke:none" transform="matrix(2.3622 0 0 -2.3622 24.239 56.303)"/><path d="M0 0c.499.017.839-.053 1.26-.083 1.202-.136 2.347-.534 3.47-1.025a6.14 6.14 0 0 0 .534-.336s.376-.318.59-.481c.328-.305.615-.632.881-.963.08-.164.317-.526.335-.564.448-.855.864-1.738 1.214-2.638.032-.055.044-.112.068-.168-.2-.094-.427-.142-.645-.21-.046-.018-.684-.2-.937-.313a34.944 34.944 0 0 0-2.164-.434 22.226 22.226 0 0 0-1.499-.19c-.027-.004-.855-.068-1.013-.052-.223-.045-.444-.011-.671-.022-.474-.007-1.499.07-1.541.084a5.986 5.986 0 0 0-1.249.27c-.068.021-1.125.448-1.162.462-.202.085-.643.368-.643.368-.281.121-.526.337-.771.503a6.923 6.923 0 0 0-1.089 1.089c-.499.652-1.261 2.127-1.272 2.14.966.838 2.137 1.398 3.325 1.889.462.2.945.366 1.426.533C-1.039-.072-.49.054 0 0" style="fill:#db1f26;fill-opacity:1;fill-rule:nonzero;stroke:none" transform="matrix(2.3622 0 0 -2.3622 67.44 39.528)"/><path d="M0 0c.841-1.099 1.747-2.091 1.987-3.611.078-.482.176-.976.196-1.449.065-.526.13-1.087.134-1.595.007-.821-.057-1.654-.058-2.475-.401.122-.795.288-1.186.435-.03-.014-2.751.969-2.751.969A17.36 17.36 0 0 0-4.582-6.08s-1.282.949-1.682 1.54c-.276.374-.523.773-.787 1.168-.036.049-.253.488-.268.682-.141.599-.26 1.203-.217 1.79-.013.251-.004.55.024.828.131 1.227.434 2.421.811 3.61l.071.313C-4.325 3.052-1.648 1.892 0 0" style="fill:#db1f26;fill-opacity:1;fill-rule:nonzero;stroke:none" transform="matrix(2.3622 0 0 -2.3622 62.765 59.818)"/><path d="M0 0c-1.644-.613-3.214-1.355-4.799-2.084-.259-.16-.541-.364-.811-.519-.471-.509-1.516-1.459-1.516-1.459-.631-.616-1.25-1.538-1.252-2.477-.063-.919.039-1.837.17-2.767.177-.975.497-1.944.808-2.915.067-.329.168-.63.233-.952.095.016.231.066.345.08 0 0 2.565.864 3.697 1.497.921.532 1.821 1.108 2.463 1.965.115.107.335.398.335.398C.54-8.04 1.059-6.544 1.054-5.149c0 0-.007.445.013.661-.046.524-.179 1.056-.233 1.574-.103.309-.147.622-.243.933C.437-1.335.181-.663 0 0" style="fill:#db1f26;fill-opacity:1;fill-rule:nonzero;stroke:none" transform="matrix(2.3622 0 0 -2.3622 40.263 50.806)"/></svg>