<svg xmlns="http://www.w3.org/2000/svg" width="494.16739mm" height="70.732765mm" viewBox="0 0 494.16739 70.732765"><path d="M192.762 351.34c-.266.21-.54.414-.817.613a9.49 9.49 0 0 0-1.386 1.328l-.329.45c-.07.09-.132.187-.19.289a.69.69 0 0 0-.067.144 1.095 1.095 0 0 0-.11.238 8.93 8.93 0 0 0-.129.461l-.03.352c-.005.11-.005.219 0 .332.042.586.163 1.164.347 1.723.281.582.582 1.152.898 1.714.555.598 1.102 1.211 1.633 1.832.441-.527.875-1.066 1.293-1.613l.438-.734c.3-.496.515-1.04.644-1.606l.074-.605c.04-.274.028-.547-.03-.817-.017-.101-.032-.207-.06-.308l-.132-.426a4.393 4.393 0 0 0-.43-.945c-.227-.36-.438-.723-.637-1.098a1.77 1.77 0 0 1-.133-.2l-.847-1.124M184.598 355.242c-.262-.066-.524-.14-.786-.222a4.293 4.293 0 0 1-.308-.06 1.355 1.355 0 0 0-.012.18l.078.68.032.29.05.363a7.11 7.11 0 0 0 .953 2.773c.43.617.961 1.16 1.57 1.602a6.75 6.75 0 0 0 2.036.71 10.84 10.84 0 0 0 2.668-.43 1.559 1.559 0 0 0-.024-.187l-.128-.625a6.166 6.166 0 0 0-1.079-2.336l-.52-.585a5.458 5.458 0 0 0-1.425-1.2l-.262-.133a7.15 7.15 0 0 0-.687-.296 8.971 8.971 0 0 0-1.566-.344 3.903 3.903 0 0 0-.2-.063 2.793 2.793 0 0 1-.39-.117M199.29 355.984a3.562 3.562 0 0 0-1.755.114c-.222.09-.441.199-.644.328a8.207 8.207 0 0 0-1.442 1.262c-.199.253-.363.535-.488.835-.11.266-.238.524-.383.766l-.117.285a3.943 3.943 0 0 0-.156.457l-.293 1.215c.093.02.191.035.285.05l1.098.142c.242.039.484.058.73.05a6.925 6.925 0 0 0 2.82-.754c.055-.023.114-.046.168-.074a10.02 10.02 0 0 0 1.278-.762c.52-.347.964-.796 1.304-1.32.106-.148.2-.312.274-.48.164-.414.265-.852.304-1.297l-1.347-.465-.149-.04c-.125-.034-.246-.07-.37-.097a21.697 21.697 0 0 0-1.118-.215M187.23 366.14c.313-.124.598-.312.836-.554l.52-.516c.402-.433.77-.894 1.101-1.382l.149-.227c.105-.16.215-.316.328-.473a18.049 18.049 0 0 0-2.266-.867c-.464-.133-.937-.25-1.41-.344a4.504 4.504 0 0 0-.558-.05l-.957-.055a2.803 2.803 0 0 0-.766.086 8.305 8.305 0 0 0-2.95 1.484l-.413.336c.37.574.777 1.129 1.219 1.656.066.086.14.164.218.242l.489.489c.199.097.398.187.601.277.387.207.809.332 1.242.371l.32.035a8.394 8.394 0 0 0 1.915-.351 2.71 2.71 0 0 0 .382-.156M198.629 361.715a1.937 1.937 0 0 0-.305 0c-.222.023-.445.05-.668.09-.308.101-.617.218-.918.343a7.44 7.44 0 0 0-2.039 1.165l.262.484c.16.293.336.578.531.851.2.25.426.477.676.676l.156.114c.102.078.211.144.324.199l.16.097c.079.051.16.094.243.137l.508.2.222.085c.254.082.512.14.778.168.316.031.632.051.953.051h.168c.09.008.175.004.261-.012.086 0 .172-.004.258-.008l.36-.027c.191-.016.378-.04.566-.063l.371-.054c.457-.075.906-.168 1.356-.274.168-.062.34-.12.511-.172l.117-.035a2.17 2.17 0 0 0 .336-.152 17.139 17.139 0 0 0-.816-1.762 4.654 4.654 0 0 1-.176-.3 6.705 6.705 0 0 0-.55-.602l-.368-.3a4.258 4.258 0 0 0-.332-.208 7.63 7.63 0 0 0-2.164-.64l-.168-.012a3.6 3.6 0 0 0-.613-.04M197.395 367.066a5.812 5.812 0 0 0-.918-.832 12.464 12.464 0 0 0-3.215-1.57l-.043.2a11.39 11.39 0 0 0-.504 2.245 3.535 3.535 0 0 0-.02.575c.004.37.051.738.145 1.093.039.13.09.254.148.375.164.25.328.5.5.746.051.07.11.141.168.204.278.273.57.523.883.753.566.399 1.176.743 1.809 1.028l.41.144 1.289.453c.25.102.5.196.754.278l.035-1.543a8.681 8.681 0 0 0-.082-1.004 8.628 8.628 0 0 0-.125-.895 3.084 3.084 0 0 0-.438-1.156 12.224 12.224 0 0 0-.796-1.094M191.457 364.688a46.033 46.033 0 0 0-2.988 1.3l-.504.32c-.305.317-.621.618-.95.915a2.741 2.741 0 0 0-.699 1.074c-.05.152-.078.308-.078.469a8.204 8.204 0 0 0 .106 1.722c.129.617.297 1.223.504 1.817l.14.578.172-.024c.738-.246 1.461-.527 2.164-.847a5.822 5.822 0 0 0 1.46-1.02 3.21 3.21 0 0 0 .263-.3c.058-.06.113-.126.164-.192.559-.754.875-1.66.906-2.602a4.676 4.676 0 0 1 .004-.41c-.031-.27-.07-.539-.12-.808l-.024-.176a7.125 7.125 0 0 1-.133-.516 32.778 32.778 0 0 0-.387-1.3" style="fill:#d91e26;fill-opacity:1;fill-rule:nonzero;stroke:none" transform="matrix(3.28333 0 0 3.28333 -593.77 -1153.566)"/><path d="M318.488 361.969h10.078v-1.055h-10.078zm0 0" style="fill:#68737a;fill-opacity:1;fill-rule:nonzero;stroke:none" transform="matrix(3.28333 0 0 3.28333 -593.77 -1153.566)"/><path d="M318.488 361.96h1.149v-5.858h-1.149zM314.094 369.18h1.273v-13.082h-1.273zM307.438 357.371a5.68 5.68 0 0 1 3.304 5.043c.012.68-.098 1.36-.328 2l1.043.5a6.517 6.517 0 0 0 .438-2.5 6.848 6.848 0 0 0-5.032-6.476l-4.441 8.406 1.387-.016 3.629-6.957M299.445 360.664l.38-1.055h-1.626v-3.511h-1.176v13.078h1.176v-8.512h1.246" style="fill:#68737a;fill-opacity:1;fill-rule:nonzero;stroke:none" transform="matrix(3.28333 0 0 3.28333 -593.77 -1153.566)"/><path d="M299.402 369.176h1.164v-13.078h-1.164zM274.598 364.64h1.273v-8.542h-1.273zM284.52 369.176h1.277v-13.078h-1.277zm0 0" style="fill:#68737a;fill-opacity:1;fill-rule:nonzero;stroke:none" transform="matrix(3.28333 0 0 3.28333 -593.77 -1153.566)"/><path d="M274.598 365.11h10.668v-1.051h-10.668zM274.598 360.688h6.511v-1.051h-6.511zM274.598 357.148h6.511v-1.05h-6.511zM282.41 360.688h3.074v-1.051h-3.074zM289.367 364.64h1.274v-8.542h-1.274zm0 0" style="fill:#68737a;fill-opacity:1;fill-rule:nonzero;stroke:none" transform="matrix(3.28333 0 0 3.28333 -593.77 -1153.566)"/><path d="M289.367 365.11h8.5v-1.051h-8.5zM319.965 364.379h9.515v-1.05h-9.515zM320.523 369.18h8.957v-1.051h-8.957zM319.965 366.75h9.515v-1.055h-9.515zm0 0" style="fill:#68737a;fill-opacity:1;fill-rule:nonzero;stroke:none" transform="matrix(3.28333 0 0 3.28333 -593.77 -1153.566)"/><path d="M319.965 369.18h1.273v-3.45h-1.273zM328.203 362.582h1.277v-6.48h-1.277zM328.203 365.934h1.277v-1.864h-1.277zM310.336 359.52h4.457v-1.055h-4.457zm0 0" style="fill:#68737a;fill-opacity:1;fill-rule:nonzero;stroke:none" transform="matrix(3.28333 0 0 3.28333 -593.77 -1153.566)"/><path d="M328.828 359.52h2.524v-1.055h-2.524zM310.941 361.625h3.852v-1.055h-3.852zM262.703 355.715a3.991 3.991 0 0 0-3.992 3.996c0 1.059.422 2.078 1.168 2.828a4.008 4.008 0 0 0 2.824 1.168 3.994 3.994 0 0 0 2.824-6.82 3.981 3.981 0 0 0-2.824-1.172m2.844 3.996c0 .754-.3 1.476-.832 2.012a2.841 2.841 0 1 1 .832-2.012M234.691 359.613h-1.625a7.228 7.228 0 0 0-3.093-3.164c-.23-.133-.465-.254-.703-.367l-.16-.086-4.423 8.363h1.325l3.617-6.859a6.11 6.11 0 0 1 2.621 3.156 5.644 5.644 0 0 1-.082 3.563l1.035.594c.219-.57.356-1.172.41-1.782a6.806 6.806 0 0 0-.168-2.367h1.246v8.516h1.176v-13.082h-1.176v3.515M237.07 369.18h1.164v-13.082h-1.164zM216.871 364.348l1.074.504c.235-.622.38-1.27.422-1.93a6.249 6.249 0 0 0-2.504-5.582 9.465 9.465 0 0 0-1.18-.797c-.269-.152-.538-.29-.816-.422l-.21-.11-4.427 8.364 1.38.004 3.59-6.879a5.996 5.996 0 0 1 2.788 3.348 5.85 5.85 0 0 1-.117 3.5" style="fill:#68737a;fill-opacity:1;fill-rule:nonzero;stroke:none" transform="matrix(3.28333 0 0 3.28333 -593.77 -1153.566)"/><path d="M221.219 368.125h-7.344v-3.781h-1.273v4.832h9.875v-13.078h-1.258v12.027M269.734 368.125h-6.605v-3.781h-1.277v4.832h9.14v-13.078h-1.258v12.027M252.129 369.18h1.168v-13.082h-1.168zM241.145 364.98a7.556 7.556 0 0 0 5.91-3.308l2.695-.047v7.555h1.176v-13.082h-1.176v2.367h-1.66a7.491 7.491 0 0 0-.254-2.3l-6.106-.056v1.07h5.153c.043.266.066.536.062.801a5.743 5.743 0 0 1-4.015 5.493 8.4 8.4 0 0 1-2.207.449l.422 1.058m8.605-4.41h-2.152c.132-.332.238-.672.32-1.015l1.832-.036v1.051" style="fill:#68737a;fill-opacity:1;fill-rule:nonzero;stroke:none" transform="matrix(3.28333 0 0 3.28333 -593.77 -1153.566)"/></svg>