<svg xmlns="http://www.w3.org/2000/svg" width="54.759998mm" height="63.099998mm" viewBox="0 0 54.759999 63.099999"><path d="M28.564.09c.5.673 1.543 2.065 1.57 2.086.079.132.15.267.253.38.604 1.242 1.536 2.356 1.945 3.742l.248.785s.064.266.103.568c.226.883.01 1.753-.078 2.62-.292 1.544-1.188 2.973-1.993 4.311-.746 1.015-2.383 2.971-2.383 2.971-.965-1.154-2.005-2.267-3.01-3.377-.565-1.039-1.144-2.072-1.652-3.157-.369-1.24-.689-2.466-.646-3.693-.013-.014.042-.526.064-.74.119-.434.2-.915.432-1.287.07-.196.326-.618.483-.799 0 0 .467-.665.6-.828 1.133-1.417 2.624-2.42 3.928-3.657.067-.052.098.046.136.075M13.52 7.282c.35.15.727.202 1.082.331.988.1 1.944.366 2.891.633.586.196 1.745.792 1.745.792 1.507.824 2.528 2.099 3.587 3.289.898 1.272 1.644 2.66 1.984 4.304.084.489.242 1.01.281 1.499a19.904 19.904 0 0 1-4.915.79c-1.3-.201-2.535-.68-3.749-1.312-1.19-.836-2.097-1.843-2.896-2.95-1.065-1.658-1.605-3.764-1.846-5.777-.034-.278-.056-.53-.056-.53s-.094-.835-.144-1.254c0-.212.018-.332.018-.332s.326.073.57.11c.372.118 1.272.378 1.448.407M40.591 8.654c.053.008 1.675.265 2.613.537.164.029.252.076.398.105.829.28 1.659.56 2.481.86-.129 1.124-.331 2.231-1.017 3.21-.022.035-.05.074-.089.13-.572.93-1.464 1.752-2.362 2.366-.856.557-1.697 1.15-2.664 1.544-1.97.946-4.317 1.653-6.542 1.295-.836-.145-1.714-.173-2.547-.357 0 0 .375-1.49.543-2.234.107-.474.5-1.367.5-1.367.632-.99.836-2.097 1.67-3.027 1.126-1.157 2.279-2.272 3.782-2.853 1.051-.36 2.2-.398 3.234-.21M18.368 27.363c1.027-.378 1.746-1.222 2.496-1.974.747-.78 1.404-1.642 2.03-2.546.018-.026.589-.908.855-1.254.02-.032.043-.048.062-.083-1.412-.575-2.782-1.181-4.213-1.549-1.205-.302-2.387-.703-3.629-.728-1.053-.03-2.078-.237-3.175.06-2.44.599-4.377 1.913-6.206 3.315l.02.071c.674 1.01 1.367 2.014 2.158 2.925.003.008.307.395.491.545l.891.892c.355.183 1.11.516 1.11.516.901.518 1.899.658 2.874.749 1.126-.094 3.052-.34 4.236-.939M39.366 19.212c.573-.021.963.06 1.445.094 1.38.157 2.695.614 3.986 1.177.209.117.417.25.614.386 0 0 .429.366.674.553.377.35.706.726 1.012 1.106.093.187.364.602.386.648.513.98.991 1.994 1.393 3.03.038.06.049.126.077.19-.228.107-.49.161-.74.24-.052.02-.785.232-1.075.36-.812.192-1.665.36-2.484.498-.058.012-1.191.185-1.722.217-.03.006-.98.08-1.164.062-.253.051-.507.012-.769.025-.543.008-1.722-.08-1.77-.096a6.975 6.975 0 0 1-1.432-.31c-.08-.026-1.294-.514-1.336-.53-.23-.099-.737-.423-.737-.423-.322-.14-.605-.386-.886-.575a8.293 8.293 0 0 1-1.25-1.252c-.572-.75-1.448-2.443-1.46-2.459 1.107-.96 2.454-1.604 3.818-2.168.53-.229 1.084-.421 1.638-.611.589-.08 1.217-.225 1.782-.162M37.093 29.072c.967 1.263 2.005 2.402 2.281 4.146.09.554.204 1.12.225 1.664.075.604.15 1.247.155 1.832.008.942-.066 1.896-.067 2.84-.46-.14-.912-.33-1.361-.5-.034.017-3.159-1.112-3.159-1.112-1.134-.492-2.294-1.166-3.334-1.89 0 0-1.472-1.087-1.932-1.765-.315-.432-.601-.891-.902-1.344-.042-.055-.29-.56-.31-.784-.16-.685-.295-1.38-.248-2.053a6.576 6.576 0 0 1 .03-.951c.148-1.407.497-2.779.931-4.143l.08-.361c2.646.918 5.718 2.249 7.611 4.421M26.157 24.693c-1.888.703-3.69 1.557-5.509 2.393-.3.183-.62.418-.933.595-.539.585-1.739 1.676-1.739 1.676-.724.707-1.435 1.766-1.436 2.843-.072 1.053.043 2.11.194 3.176.204 1.12.57 2.23.928 3.346.076.38.193.725.266 1.096.11-.02.265-.077.396-.094 0 0 2.947-.99 4.246-1.72 1.056-.608 2.09-1.271 2.828-2.255.133-.121.387-.456.387-.456.992-1.37 1.586-3.087 1.583-4.689 0 0-.009-.51.015-.76-.052-.598-.206-1.212-.27-1.806-.117-.356-.166-.714-.276-1.07-.179-.742-.473-1.514-.68-2.275" style="fill:#d80d19;fill-opacity:1;fill-rule:nonzero;stroke:none;stroke-width:.352778"/><path d="M31.295 51.898H29.39c-.696-1.483-2.028-2.975-4.443-4.14l-.003.006-.185-.101-5.178 9.795 1.551-.001 4.233-8.035c1.473.917 4.421 3.387 2.974 7.868l1.215.696s.955-2.26.28-4.855h1.461v9.966h1.375V47.783h-1.375zM34.08 63.097h1.363V47.783H34.08zM53.393 63.097h1.363V47.783h-1.363zM40.532 58.183c4.92-.314 6.95-3.928 6.95-3.928h3.127v8.842h1.374V47.783H50.61v2.77h-1.947c.053-.888-.074-2.063-.318-2.758h-7.127v1.255h6.033c.085.5.074.937.074.937-.081 3.813-2.804 6.626-7.29 6.953zm10.077-5.165h-2.52c.14-.396.301-.805.38-1.227h2.14zM14.029 61.866H5.43v-4.427h-1.49v5.66h11.565V47.781h-1.477z" style="fill:#72787c;fill-opacity:1;fill-rule:nonzero;stroke:none;stroke-width:.352778"/><path d="m8.94 57.444 1.256.588s2.598-6.048-3.805-9.718h.001l-.028-.016c-.295-.166-.608-.33-.94-.486l-.248-.129L0 57.476h1.608l4.203-8.048c1.338.773 4.643 3.229 3.129 8.015" style="fill:#72787c;fill-opacity:1;fill-rule:nonzero;stroke:none;stroke-width:.352778"/></svg>